<?xml version="1.0" encoding="iso-8859-1"?>
<!-- Generator: Adobe Illustrator 19.0.0, SVG Export Plug-In . SVG Version: 6.00 Build 0)  -->
<svg version="1.1" id="Layer_1" xmlns="http://www.w3.org/2000/svg" xmlns:xlink="http://www.w3.org/1999/xlink" x="0px" y="0px"
	 viewBox="0 0 451.277 451.277" style="enable-background:new 0 0 451.277 451.277;" xml:space="preserve">
<circle style="fill:#EFC84A;" cx="225.638" cy="225.638" r="225.638"/>
<path style="opacity:0.1;enable-background:new    ;" d="M304.453,121.625c-1.88-1.88-4.795-2.115-6.958-0.563l-15.89,11.235
	L247.098,97.79c-0.94-0.894-2.257-1.41-3.667-1.41h-35.588c-2.633,0-4.936,1.88-5.359,4.513l-3.573,20.826
	c-9.873,2.539-19.228,6.488-27.831,11.564l-17.3-12.222c-2.163-1.552-5.077-1.317-6.958,0.563l-25.198,25.199
	c-1.88,1.88-2.116,4.842-0.564,7.005l12.223,17.253c-5.077,8.603-9.026,17.959-11.565,27.878l-20.826,3.526
	c-2.633,0.423-4.513,2.727-4.513,5.359v35.588c0,1.363,0.47,2.585,1.269,3.526l34.648,34.648l-11.236,15.89
	c-1.551,2.163-1.316,5.124,0.564,6.958l25.198,25.198l118.161,118.161c93.079-16.376,166.455-89.754,182.827-182.833
	L329.651,146.823L304.453,121.625z"/>
<circle style="fill:#EBF0F3;" cx="225.638" cy="225.638" r="85.34"/>
<path style="fill:#64798A;" d="M264.541,265.646v-86.42c0-1.045-0.173-2.084-0.517-3.07c-2.84-8.137-9.71-9.118-9.71-9.118
	c0.879-4.554-0.519-7.143-2.138-8.592c-1.305-1.169-3.029-1.761-4.782-1.761h-29.685c-17.048,0-30.995,13.948-30.995,30.995v77.967"
	/>
<path style="fill:#F6C358;" d="M248.405,250.726c-1.738-1.949-2.651-4.496-2.651-7.107v-2.356c-0.247,0.314-0.472,0.669-0.724,0.972
	c-5.417,6.467-12.112,10.344-19.388,10.344c-7.288,0-13.992-3.888-19.413-10.374c-0.253-0.302-0.477-0.659-0.724-0.973v2.387
	c0,2.611-0.914,5.158-2.651,7.107c-0.796,0.894-1.825,1.847-3.113,2.765c0.126,0.142,0.374,0.425,0.817,0.962
	c1.332,1.619,4.009,5.121,7.237,10.579c5.537,2.146,11.539,3.352,17.834,3.352c6.295,0,12.297-1.206,17.834-3.352
	c3.229-5.459,5.906-8.961,7.238-10.58c0.442-0.537,0.691-0.82,0.816-0.961C250.23,252.572,249.201,251.62,248.405,250.726z"/>
<path style="fill:#FCD462;" d="M225.641,253.352c7.277,0,13.971-3.876,19.388-10.344c0.253-0.302,0.477-0.658,0.724-0.972
	c7.52-9.531,12.392-24.184,12.392-40.735c-0.864-6.695-6.911-10.799-6.911-10.799l-19.438-6.479
	c-2.472,2.06-5.681,3.334-8.362,4.104c-2.533,0.727-5.156,1.08-7.791,1.08h-10.412c-11.447,1.08-12.095,12.095-12.095,12.095
	c0,16.532,4.861,31.172,12.367,40.704c0.247,0.314,0.472,0.67,0.724,0.973C211.649,249.464,218.354,253.352,225.641,253.352z"/>
<path style="fill:#44C4A1;" d="M211.24,272.001c5.005,10.044,10.434,23.818,14.387,41.694c3.963-17.921,9.41-31.72,14.425-41.771
	c-4.621,1.176-9.434,1.865-14.425,1.865C220.659,273.789,215.845,273.159,211.24,272.001z"/>
<path style="fill:#31978C;" d="M204.831,263.52c1.585,2.68,3.282,5.785,5.031,9.294c5.047,1.269,10.322,1.959,15.766,1.959
	c5.468,0,10.743-0.755,15.806-2.043c1.734-3.475,3.416-6.55,4.989-9.209c-6.456,2.503-13.455,3.909-20.795,3.909
	C218.286,267.428,211.287,266.022,204.831,263.52z"/>
<path style="fill:#3A556A;" d="M198.694,254.449l-11.254,6.077l-14.862,8.026c0,0-11.179,6.987-11.179,17.932v25.703h64.227l0-0.002
	"/>
<path style="fill:#EBF0F3;" d="M212.107,273.002c-1.5-3.009-2.955-5.672-4.314-7.97c-3.228-5.458-5.905-8.96-7.237-10.579
	c-0.442-0.537-0.691-0.821-0.817-0.962c-0.041-0.046,0,0,0,0l-1.046,0.958l-5.221,6.208c-1.055,1.255-1.009,3.1,0.107,4.301
	l12.299,13.231l-2.055-0.047c-2.801-0.065-4.365,3.211-2.551,5.348l24.353,28.697l0.001-0.003
	C221.912,295.384,216.81,282.441,212.107,273.002z"/>
<path style="fill:#3A556A;" d="M225.625,312.188h0.003h64.227v-25.703c0-10.945-11.178-17.932-11.178-17.932l-14.862-8.026
	l-11.254-6.077"/>
<path style="fill:#EBF0F3;" d="M247.429,278.141l-2.055,0.047l12.299-13.231c1.117-1.201,1.163-3.045,0.107-4.301l-5.22-6.208
	l-1.046-0.958c0,0,0.041-0.046,0,0c-0.125,0.141-0.374,0.424-0.816,0.961c-1.332,1.619-4.009,5.121-7.238,10.58
	c-1.349,2.28-2.792,4.917-4.279,7.898c-4.713,9.445-9.831,22.412-13.555,39.253l-0.001,0.003v0.001l24.355-28.698
	C251.794,281.352,250.23,278.076,247.429,278.141z"/>
<path style="fill:#E56353;" d="M350.395,202.483l-20.871-3.547c-2.539-9.909-6.475-19.254-11.558-27.84l12.266-17.29
	c1.535-2.163,1.285-5.117-0.59-6.993l-25.173-25.173c-1.876-1.875-4.83-2.124-6.993-0.59l-17.283,12.263
	c-8.589-5.087-17.936-9.027-27.849-11.569l-3.545-20.856c-0.444-2.614-2.709-4.527-5.361-4.527h-35.6
	c-2.652,0-4.917,1.912-5.361,4.526l-3.545,20.851c-9.916,2.54-19.268,6.479-27.86,11.566l-17.272-12.255
	c-2.163-1.534-5.117-1.285-6.993,0.59l-25.173,25.173c-1.875,1.875-2.124,4.83-0.59,6.993l12.252,17.27
	c-5.089,8.592-9.029,17.945-11.571,27.864l-20.844,3.542c-2.615,0.444-4.527,2.709-4.527,5.361v35.601
	c0,2.651,1.912,4.917,4.527,5.361l20.848,3.543c2.541,9.916,6.482,19.267,11.571,27.858l-12.257,17.275
	c-1.534,2.163-1.285,5.117,0.59,6.992l25.173,25.174c1.875,1.875,4.83,2.124,6.993,0.59l17.281-12.261
	c8.589,5.084,17.938,9.022,27.85,11.561l3.546,20.863c0.444,2.614,2.709,4.527,5.361,4.527h35.6c2.652,0,4.917-1.912,5.361-4.527
	l3.547-20.869c9.909-2.541,19.252-6.479,27.837-11.563l17.292,12.269c2.163,1.534,5.117,1.285,6.992-0.59l25.174-25.173
	c1.875-1.875,2.125-4.83,0.59-6.992l-12.27-17.295c5.082-8.584,9.019-17.927,11.559-27.834l20.873-3.548
	c2.614-0.444,4.527-2.71,4.527-5.361v-35.6C354.922,205.193,353.009,202.928,350.395,202.483z M304.038,253.683
	c-7.803,23.726-26.64,42.564-50.366,50.367c-67.248,22.118-128.574-39.209-106.454-106.456
	c7.804-23.726,26.641-42.562,50.367-50.365C264.831,125.112,326.154,186.437,304.038,253.683z"/>
<g>
</g>
<g>
</g>
<g>
</g>
<g>
</g>
<g>
</g>
<g>
</g>
<g>
</g>
<g>
</g>
<g>
</g>
<g>
</g>
<g>
</g>
<g>
</g>
<g>
</g>
<g>
</g>
<g>
</g>
</svg>
